<svg width="448" height="229" xmlns="http://www.w3.org/2000/svg">
 <!-- Created with Method Draw - http://github.com/duopixel/Method-Draw/ -->
 <g>
  <title>background</title>
  <rect fill="none" id="canvas_background" height="231" width="450" y="-1" x="-1"/>
  <g display="none" overflow="visible" y="0" x="0" height="100%" width="100%" id="canvasGrid">
   <rect fill="url(#gridpattern)" stroke-width="0" y="0" x="0" height="100%" width="100%"/>
  </g>
 </g>
 <g>
  <title>Layer 1</title>
  <path id="svg_2" d="m76.5,-2" opacity="0.5" stroke-width="1.5" stroke="#000" fill="#FFB27C"/>
  <text xml:space="preserve" text-anchor="start" font-family="Helvetica, Arial, sans-serif" font-size="24" id="svg_1" y="71" x="85.5" stroke-width="0" stroke="#000" fill="#000000"/>
  <path d="m67.5,3c-1,0 -2.292892,-0.707108 -3,0c-0.707108,0.707108 -1.076118,0.617317 -2,1c-1.306564,0.541199 -2.076118,0.617317 -3,1c-1.306564,0.541199 -2.076118,0.617317 -3,1c-1.306564,0.541199 -1.292892,1.292892 -2,2c-0.707108,0.707108 -1.693436,0.458801 -3,1c-0.923882,0.382683 -4.412071,0.968552 -8,3c-1.230652,0.696785 -2.076118,1.617317 -3,2c-1.306564,0.541199 -2.458801,0.693436 -3,2c-0.382683,0.923882 -1.292892,0.292892 -2,1c-0.707108,0.707108 -0.617317,1.076118 -1,2c-0.541199,1.306564 -1.458801,1.693436 -2,3c-0.382683,0.923882 -1,1 -1,2c0,1 -1,2 -1,3c0,3 0,4 0,5c0,1 0,2 0,3c0,1 0,2 0,3c0,1 0,2 0,3c0,1 0,2 0,3c0,1 0,2 1,3c1,1 1,2 1,3c0,1 1,1 1,2c0,1 0.292892,1.292892 1,2c0.707108,0.707108 0.292892,1.292892 1,2c0.707108,0.707108 0.617317,2.076126 1,3c0.541199,1.306564 1.458801,1.693436 2,3c0.382683,0.923874 0.292892,1.292892 1,2c0.707108,0.707108 0.292892,1.292892 1,2c0.707108,0.707108 0.292892,1.292892 1,2c0.707108,0.707108 1,1 2,2c1,1 1.292892,1.292892 2,2c0.707108,0.707108 0.292892,1.292892 1,2c0.707108,0.707108 1.292892,1.292892 2,2c0.707108,0.707108 0.292892,2.292892 1,3c0.707108,0.707108 0.693436,1.458801 2,2c0.923882,0.38269 0.292892,1.292892 1,2c0.707108,0.707108 0.292892,1.292892 1,2c0.707108,0.707108 0.617317,1.076126 1,2c0.541199,1.306564 2,2 2,3c0,1 1,1 1,2c0,1 1,1 1,2c0,1 0.292892,1.292892 1,2c0.707108,0.707108 -0.382683,2.076126 0,3c0.541199,1.306564 1,2 1,3c0,1 1,1 1,2c0,1 0,2 0,3c0,1 0.292892,1.292892 1,2c0.707108,0.707108 0,2 0,3c0,1 0,2 0,3c0,1 0,2 0,3c0,1 0,2 0,3c0,1 0,2 0,3c0,1 0,2 0,3c0,1 0,2 0,3c0,1 -1.458801,1.693436 -2,3c-0.382683,0.923874 -0.292892,1.292892 -1,2c-0.707108,0.707108 -0.292892,1.292892 -1,2c-0.707108,0.707108 -0.617317,2.076126 -1,3c-0.541199,1.306564 -1.292892,1.292892 -2,2c-0.707108,0.707108 -1.292892,0.292892 -2,1c-0.707108,0.707108 -0.693436,1.458801 -2,2c-0.923882,0.38269 -1.076118,0.61731 -2,1c-1.306564,0.541199 -1.693436,1.458801 -3,2c-0.923882,0.38269 -1,1 -2,1c-1,0 -1.292892,0.292892 -2,1c-0.707108,0.707108 -2,0 -3,0c-1,0 -2,0 -3,0c-1,0 -2,0 -3,0c-1,0 -2,0 -3,0c-1,0 -2,0 -3,0c-1,0 -2,0 -3,0c-1,0 -2,0 -3,0c-1,0 -1.076122,-0.61731 -2,-1c-1.306564,-0.541199 -1.693436,-1.458801 -3,-2c-0.923878,-0.38269 -2.458805,-0.693436 -3,-2c-0.382683,-0.923874 -0.693436,-1.458801 -2,-2c-0.923878,-0.38269 -1.292892,-0.292892 -2,-1c-0.707108,-0.707108 -0.292892,-2.292892 -1,-3c-0.707108,-0.707108 -2.458805,-0.693436 -3,-2c-0.382683,-0.923874 -0.292892,-2.292892 -1,-3c-0.707108,-0.707108 -1.292892,-0.292892 -2,-1c-0.707108,-0.707108 0,-2 -1,-2l0,-1l0,-1l-1,0" id="svg_5" stroke-width="1.5" stroke="#FABA6F" fill="none"/>
  <path d="m105.5,29c0,1 0,2 0,3c0,1 0.707108,2.292892 0,3c-0.707108,0.707108 -1,1 -1,2c0,1 -1,2 -1,3c0,1 -0.292892,1.292892 -1,2c-0.707108,0.707108 0,2 0,3c0,1 -1,1 -1,2c0,1 -1,2 -1,3c0,1 0,2 0,3c0,1 -1,1 -1,2c0,1 0,2 0,3c0,1 -1,2 -1,3c0,2 -1,2 -1,3c0,1 0.707108,3.292892 0,4c-0.707108,0.707108 -1,1 -1,2c0,1 0,2 0,3c0,1 -1,2 -1,3c0,1 -1,2 -1,3c0,2 -0.458801,2.693436 -1,4c-0.38269,0.923874 0.707108,2.292892 0,3c-0.707108,0.707108 -1,1 -1,2c0,1 -0.617317,1.076126 -1,2c-0.541199,1.306564 -1,2 -1,3c0,1 -1,1 -1,2c0,1 0,2 0,3c0,1 0.382683,2.076126 0,3c-0.541199,1.306564 -1,2 -1,3c0,1 0,2 0,3c0,1 -1,1 -1,2c0,1 -1,2 -1,3c0,1 0,2 0,3c0,1 0,2 0,3c0,1 0,2 0,3c0,1 0,2 0,3c0,1 0,2 0,3c0,1 0,2 0,3c0,1 0,2 0,3c0,1 0,0 0,-1c0,-1 0,-2 0,-3c0,-1 0,-2 0,-3c0,-1 0.458801,-1.693436 1,-3c0.382683,-0.923874 0,-2 0,-4c0,-1 0.486259,-1.823746 1,-4c0.229752,-0.973251 0,-2 0,-3c0,-1 1,-2 1,-3c0,-1 1,-2 1,-3c0,-1 -0.382683,-2.076126 0,-3c0.541199,-1.306564 1,-2 1,-3c0,-1 0.458801,-1.693436 1,-3c0.38269,-0.923874 -0.38269,-2.076126 0,-3c0.541199,-1.306564 1.292892,-1.292892 2,-2c0.707108,-0.707108 0,-2 0,-3c0,-1 2.292892,-9.292892 3,-10c0.707108,-0.707108 2,-3 2,-4c0,-1 1,-1 1,-2c0,-1 1.458801,-0.693436 2,-2c0.38269,-0.923874 0.61731,-1.076126 1,-2c0.541199,-1.306564 1.076126,-1.61731 2,-2c1.306564,-0.541199 2.292892,-1.292892 3,-2c0.707108,-0.707108 0.292892,-1.292892 1,-2c0.707108,-0.707108 2.292892,-0.292892 3,-1c0.707108,-0.707108 1.292892,-0.292892 2,-1c0.707108,-0.707108 0.292892,-1.292892 1,-2c0.707108,-0.707108 2,-1 3,-1c1,0 1,-1 2,-1c1,0 1.292892,-1.292892 2,-2c0.707108,-0.707108 1.292892,-0.292892 2,-1c0.707108,-0.707108 1.292892,-0.292892 2,-1c0.707108,-0.707108 2,0 3,-1c1,-1 1.292892,-1.292892 2,-2c0.707108,-0.707108 1.693436,-0.458801 3,-1c0.923874,-0.38269 1.292892,-0.292892 2,-1c0.707108,-0.707108 1,-1 2,-1c1,0 2,-1 3,-1c1,0 1,-1 2,-1c1,0 1.292892,-0.292892 2,-1c0.707108,-0.707108 0.707108,0.292892 0,1c-0.707108,0.707108 -1.292892,0.292892 -2,1c-0.707108,0.707108 -1.474274,1.149353 -2,2c-1.175568,1.902115 -2.292892,1.292892 -3,2c-0.707108,0.707108 -1.026749,0.770248 -2,1c-2.176254,0.513748 -3.292892,2.292892 -4,3c-0.707108,0.707108 -1.292892,1.292892 -2,2c-0.707108,0.707108 -3.186005,0.692551 -5,2c-1.147263,0.826904 -2.076126,1.61731 -3,2c-1.306564,0.541199 -2,1 -3,2c-1,1 -1.693436,1.458801 -3,2c-0.923874,0.38269 -1.292892,1.292892 -2,2c-0.707108,0.707108 -2,0 -3,1c-1,1 -2,1 -3,2c-1,1 -1.693436,1.458801 -3,2c-0.923874,0.38269 -1,1 -2,1c-1,0 -1.292892,1.292892 -2,2c-0.707108,0.707108 -2,1 -3,1c-1,0 -1,1 -2,1c-1,0 -1,1 -2,1c-1,0 -1.076126,0.61731 -2,1c-1.306564,0.541199 -1.693436,1.458801 -3,2c-0.923882,0.38269 -1.292892,0.292892 -2,1c-0.707108,0.707108 -1,1 -1,2c0,1 0,2 0,3c0,1 -0.382683,2.076126 0,3c0.541199,1.306564 1.292892,1.292892 2,2c0.707108,0.707108 0.617317,2.076126 1,3c0.541199,1.306564 0.692551,2.186005 2,4c0.826904,1.147263 1.61731,1.076126 2,2c0.541199,1.306564 1.292892,1.292892 2,2c0.707108,0.707108 0.292892,2.292892 1,3c0.707108,0.707108 1.458801,0.693436 2,2c0.38269,0.923874 0.61731,1.076126 1,2c0.541199,1.306564 1.076126,1.61731 2,2c1.306564,0.541199 0.61731,2.076126 1,3c0.541199,1.306564 1.61731,1.076126 2,2c0.541199,1.306564 1.292892,2.292892 2,3c0.707108,0.707108 2.458801,0.693436 3,2c0.38269,0.923874 0.292892,1.292892 1,2c0.707108,0.707108 2.458801,0.693436 3,2c0.38269,0.923874 0.292892,1.292892 1,2c0.707108,0.707108 1.292892,1.292892 2,2c0.707108,0.707108 1.292892,0.292892 2,1c0.707108,0.707108 -0.707108,-0.292892 0,-1c0.707108,-0.707108 1,-1 1,-2l1,0l0,-1l0,-1" id="svg_6" stroke-width="1.5" stroke="#FABA6F" fill="none"/>
  <path d="m158.5,53c0,1 0,2 0,3c0,1 -1,2 -1,3c0,1 -0.486252,1.823746 -1,4c-0.229752,0.973251 -1,2 -1,3c0,1 0,2 0,3c0,1 0,2 0,3c0,1 0,2 0,3c0,1 -1,2 -1,3c0,1 0,2 0,3c0,1 0,2 0,3c0,1 0,2 0,3c0,1 0,2 0,3c0,1 1,1 1,2c0,1 0,2 1,3c1,1 1.61731,2.076126 2,3c0.541199,1.306564 1,2 2,2c1,0 1.292892,0.292892 2,1c0.707108,0.707108 0.292892,1.292892 1,2c0.707108,0.707108 1.693436,0.458801 3,1c1.847763,0.765366 3.076126,-0.38269 4,0c1.306564,0.541199 2,1 3,1c1,0 2,0 3,0c1,0 3,0 4,0c1,0 2,0 3,0c1,0 2,0 4,0c1,0 1.693436,-0.458801 3,-1c0.923874,-0.38269 1,-1 2,-1c1,0 1.292892,-0.292892 2,-1c0.707108,-0.707108 2,0 2,-1c0,-1 0.707108,-2.292892 0,-3c-0.707108,-0.707108 -2,-1 -3,-1l-1,-1" id="svg_7" stroke-width="1.5" stroke="#FABA6F" fill="none"/>
  <path d="m164.5,80c1,0 2.292892,-0.292892 3,-1c0.707108,-0.707108 1,-1 2,-1c1,0 2,-1 4,-1c1,0 2,-1 3,-1c1,0 2.076126,0.38269 3,0c1.306564,-0.541199 1.292892,-1.292892 2,-2c0.707108,-0.707108 2,0 3,0c1,0 1,-1 2,-1c1,0 2,0 2,-1c0,-1 -0.292892,-1.292892 -1,-2c-0.707108,-0.707108 -2.076126,0.38269 -3,0c-1.306564,-0.541199 -2,-1 -3,-1l-1,0l-1,0l-1,0" id="svg_8" stroke-width="1.5" stroke="#FABA6F" fill="none"/>
  <path d="m162.5,55c1,0 1.292892,-0.292892 2,-1c0.707108,-0.707108 2,0 3,0c1,0 1,-1 2,-1c1,0 2.076126,0.38269 3,0c1.306564,-0.541199 2,-1 3,-1c1,0 2,0 3,0c1,0 2,0 3,0c1,0 1,-1 2,-1l1,0" id="svg_9" stroke-width="1.5" stroke="#FABA6F" fill="none"/>
  <path d="m231.5,32c0,2 -0.458801,2.693436 -1,4c-0.38269,0.923874 0,2 0,3c0,1 -1,2 -1,3c0,1 -1,1 -1,2c0,1 0.38269,2.076126 0,3c-0.541199,1.306564 -1,2 -1,3c0,1 0,2 0,3c0,1 -1,2 -1,3c0,1 -1,1 -1,2c0,2 0,3 0,4c0,1 -1,3 -1,4c0,1 0,2 0,4c0,1 0,3 0,4c0,1 -0.458801,1.693436 -1,3c-0.38269,0.923874 0,2 0,3c0,1 0,2 0,3c0,1 0.38269,2.076126 0,3c-0.541199,1.306564 -1,2 -1,3c0,1 0,2 0,3c0,1 0,2 0,3c0,1 0,2 0,3c0,1 0,2 0,3c0,1 0,2 -1,2l0,1l0,1l0,1" id="svg_10" stroke-width="1.5" stroke="#FABA6F" fill="none"/>
  <path d="m206.5,25c1,0 2,0 3,0c1,0 2,0 3,0c1,0 2,0 3,0c1,0 2.076126,0.38269 3,0c1.306564,-0.541199 3,-1 4,-1c1,0 2,-1 3,-1c1,0 2,0 3,0c1,0 2,0 3,0c1,0 2,0 3,0c1,0 2,0 3,0c1,0 2,0 3,0c1,0 2,0 3,0c1,0 2,0 3,0c1,0 2,0 3,0c1,0 2,0 3,0c1,0 2,0 3,0c1,0 1,1 2,1l1,0l1,0" id="svg_11" stroke-width="1.5" stroke="#FABA6F" fill="none"/>
  <path d="m286.5,44c-1,0 -2,0 -3,0c-1,0 -2,0 -3,0c-1,0 -2,0 -3,0c-1,0 -2,0 -3,0c-1,0 -1,1 -2,1c-1,0 -1.292908,0.292892 -2,1c-0.707092,0.707108 -1.292908,0.292892 -2,1c-0.707092,0.707108 -1.292908,0.292892 -2,1c-0.707092,0.707108 -1.076111,0.61731 -2,1c-1.306549,0.541199 -1.693451,1.458801 -3,2c-0.923889,0.38269 -1.292908,0.292892 -2,1c-0.707092,0.707108 -1,1 -2,2c-1,1 -2,2 -3,3c-1,1 -1.292908,1.292892 -2,2c-0.707092,0.707108 -1,1 -1,2c0,1 -1.458801,1.693436 -2,3c-0.38269,0.923874 0.707092,2.292892 0,3c-0.707092,0.707108 -1,1 -1,2c0,1 0.38269,2.076126 0,3c-0.541199,1.306564 -1,2 -1,3c0,1 0,2 0,3c0,1 0,2 0,3c0,1 0,2 0,3c0,1 0,3 0,4c0,2 0.770233,3.026749 1,4c0.513733,2.176254 2,2 2,3c0,1 0.61731,2.076126 1,3c0.541199,1.306564 1.61731,2.076126 2,3c0.541199,1.306564 1.076111,1.61731 2,2c1.306549,0.541199 1.292908,1.292892 2,2c0.707092,0.707108 1.076111,1.61731 2,2c1.306549,0.541199 1,2 2,2c1,0 1,1 2,1c1,0 1,1 2,1c1,0 2,0 3,0c1,0 2,0 2,1l1,0l1,0l1,0" id="svg_12" stroke-width="1.5" stroke="#FABA6F" fill="none"/>
  <path stroke="#FABA6F" d="m303.5,53c0,1 0,2 0,3c0,1 1.75,1 1.75,2c0,1 0.512589,1.292892 1.75,2c1.237411,0.707108 0,2 0,3c0,1 0,2 0,3c0,1 1.75,1 1.75,2c0,1 0,2 0,3c0,1 0,2 0,3c0,1 1.75,2 1.75,4c0,1 0,3 0,5c0,1 0.802902,1.693436 1.75,3c0.669708,0.923874 0.802902,2.693436 1.75,4c0.669708,0.923874 0,2 0,3c0,2 -0.402092,3.026749 0,4c0.899033,2.176254 1.75,3 1.75,4c0,1 1.75,1 1.75,2c0,1 0,2 0,3l0,1" id="svg_13" stroke-width="1.5" fill="none"/>
  <path d="m309.5,80c0,-1 1,-1 2,-1c1,0 2,-1 3,-1c1,0 1.693451,-0.458801 3,-1c0.923889,-0.38269 1.693451,-0.458801 3,-1c0.923889,-0.38269 2,0 3,0c1,0 2.292908,0.707108 3,0c0.707092,-0.707108 1,-1 2,-1c1,0 2.292908,0.707108 3,0c0.707092,-0.707108 1,-1 2,-1c1,0 1,-1 2,-1l1,-1" id="svg_14" fill-opacity="null" stroke-opacity="null" stroke-width="1.5" stroke="#FABA6F" fill="none"/>
  <path d="m332.5,49c0,1 0,2 0,3c0,1 1,2 1,3c0,1 0.458801,1.693436 1,3c0.38269,0.923874 -0.38269,2.076126 0,3c0.541199,1.306564 0.292908,2.292892 1,3c0.707092,0.707108 1,1 1,2c0,1 0.292908,1.292892 1,2c0.707092,0.707108 0,2 0,3c0,1 1,2 1,3c0,1 -0.38269,2.076126 0,3c0.541199,1.306564 0.61731,2.076126 1,3c0.541199,1.306564 1,2 1,3c0,1 0,2 0,3c0,1 1,1 1,2c0,1 0,2 0,3c0,1 0,2 0,3c0,1 0,2 0,3c0,1 0,2 0,3l0,1" id="svg_15" fill-opacity="null" stroke-opacity="null" stroke-width="1.5" stroke="#FABA6F" fill="none"/>
  <polyline stroke-linecap="round" id="svg_16" points="361.5,46 361.5,47 " fill-opacity="null" stroke-opacity="null" stroke-width="1.5" stroke="#FABA6F" fill="none"/>
  <path d="m373.5,98c0,-1 0.458801,-1.693436 1,-3c0.38269,-0.923874 -0.707092,-3.292892 0,-4c0.707092,-0.707108 0.61731,-1.076126 1,-2c0.541199,-1.306564 1,-2 1,-3c0,-2 -0.707092,-3.292892 0,-4c0.707092,-0.707108 1,-1 1,-2c0,-1 -0.38269,-2.076126 0,-3c0.541199,-1.306564 0.770233,-2.026749 1,-3c0.513733,-2.176254 2.292908,-3.707108 3,-3c0.707092,0.707108 -0.707092,2.292892 0,3c0.707092,0.707108 1,1 1,2c0,1 0.61731,2.076126 1,3c0.541199,1.306564 0.292908,2.292892 1,3c0.707092,0.707108 1,1 1,2c0,1 1,1 1,2c0,1 0.292908,2.292892 1,3c0.707092,0.707108 1,1 2,1c1,0 2,0 3,0c1,0 1.292908,-0.292892 2,-1c0.707092,-0.707108 0.292908,-1.292892 1,-2c0.707092,-0.707108 1.292908,-0.292892 2,-1c0.707092,-0.707108 -0.707092,-2.292892 0,-3c0.707092,-0.707108 1.458801,-0.693436 2,-2c0.38269,-0.923874 1,-1 1,-2c0,-1 1,-2 1,-3c0,-1 0.61731,-2.076126 1,-3c0.541199,-1.306564 0.292908,-2.292892 1,-3c0.707092,-0.707108 1,-1 1,-2c0,-1 1,-1 1,-2c0,-1 1,-1 1,-2l0,-1" id="svg_17" fill-opacity="null" stroke-opacity="null" stroke-width="1.5" stroke="#FABA6F" fill="none"/>
  <polyline stroke-linecap="round" id="svg_18" points="433.5,51 433.5,52 " fill-opacity="null" stroke-opacity="null" stroke-width="1.5" stroke="#FABA6F" fill="none"/>
  <path d="m149.5,162c0,1 0.458801,1.693451 1,3c0.38269,0.923889 0,2 0,3c0,1 0.458801,1.693451 1,3c0.38269,0.923889 0,2 0,3c0,1 0.486252,1.823761 1,4c0.229752,0.973236 0,2 0,3c0,1 0,2 0,3c0,2 1,3 1,4c0,1 -0.38269,2.076111 0,3c0.541199,1.306549 1,2 1,3c0,2 -0.707108,3.292908 0,4c0.707108,0.707092 1,1 1,2c0,1 1,2 1,3c0,1 0.292892,2.292908 1,3c0.707108,0.707092 -0.707108,2.292908 0,3c0.707108,0.707092 1.458801,0.693451 2,2c0.38269,0.923889 0.458801,1.693451 1,3c0.38269,0.923889 0.292892,1.292908 1,2c0.707108,0.707092 0.458801,1.693451 1,3c0.38269,0.923889 1,2 1,3c0,1 1,1 1,2c0,1 0.292892,1.292908 1,2c0.707108,0.707092 0,2 1,2c1,0 1.292892,-0.292908 2,-1c0.707108,-0.707092 1.292892,-0.292908 2,-1c0.707108,-0.707092 2.292892,-0.292908 3,-1c0.707108,-0.707092 1.076126,-1.61731 2,-2c1.306564,-0.541199 2.292892,-1.292908 3,-2c0.707108,-0.707092 1.292892,-1.292908 2,-2c0.707108,-0.707092 1,-1 2,-2c1,-1 2,-2 3,-3c1,-1 2,-2 3,-3c1,-1 1.292892,-2.292908 2,-3c0.707108,-0.707092 1.292892,-0.292908 2,-1c0.707108,-0.707092 1,-2 1,-3c0,-1 1,-2 1,-3c0,-1 -0.707108,-2.292908 0,-3c0.707108,-0.707092 1,-1 1,-2c0,-1 0,-2 0,-3c0,-2 0,-3 0,-4c0,-1 0,-2 0,-4c0,-1 -1,-2 -1,-3c0,-1 -1.458801,-1.693451 -2,-3c-0.38269,-0.923889 0,-2 -1,-3c-1,-1 -1.458801,-1.693451 -2,-3c-0.38269,-0.923889 -1.917603,-1.386871 -3,-4c-0.38269,-0.923889 -0.692551,-1.186005 -2,-3c-0.826904,-1.147278 -1.323669,-1.520172 -3,-3c-2.703003,-2.386169 -3.292892,-3.292908 -4,-4c-0.707108,-0.707092 -0.61731,-1.076111 -1,-2c-0.541199,-1.306549 -2.076126,-1.61731 -3,-2c-1.306564,-0.541199 -2,-2 -3,-3c-1,-1 -1.292892,-1.292892 -2,-2c-0.707108,-0.707108 -2.292892,-0.292892 -3,-1c-0.707108,-0.707108 -0.823746,-1.486252 -3,-2c-0.973251,-0.229752 -1.292892,-0.292892 -2,-1c-0.707108,-0.707108 -1,-1 -2,-1c-1,0 -2,-1 -3,-1l-1,0l-1,0" id="svg_19" fill-opacity="null" stroke-opacity="null" stroke-width="1.5" stroke="#FABA6F" fill="none"/>
  <path transform="rotate(0.5220780372619629 236.32992553710832,184.50000000000085) " d="m223.5,206c-1,0 -1.61731,-0.076111 -2,-1c-0.541199,-1.306549 -1,-2 -1,-3c0,-1 -0.61731,-2.076111 -1,-3c-0.541199,-1.306549 -1,-2 -1,-3c0,-1 0,-2 0,-4c0,-1 -0.458801,-1.693451 -1,-3c-0.38269,-0.923889 0,-2 0,-3c0,-1 0,-3 0,-4c0,-1 0,-3 0,-4c0,-1 -0.765366,-2.152252 0,-4c0.541199,-1.306549 1,-2 1,-3c0,-1 1,-2 1,-3c0,-1 1.486267,-0.823761 2,-3c0.229767,-0.973236 0.61731,-1.076111 1,-2c0.541199,-1.306549 1.292908,-1.292908 2,-2c0.707092,-0.707092 0.292908,-1.292908 1,-2c0.707092,-0.707092 1.292908,-0.292908 2,-1c0.707092,-0.707092 1,-1 2,-2c1,-1 1.693451,-1.458801 3,-2c0.923889,-0.38269 1,-1 2,-1c1,0 1,-1 2,-1c1,0 2,0 3,0c1,0 2,-1 3,-1c1,0 2,0 3,0c1,0 1.458801,0.693436 2,2c0.38269,0.923889 0.770233,2.026764 1,3c0.513733,2.176239 1.61731,3.076111 2,4c0.541199,1.306549 2,2 2,3c0,1 0.61731,2.076111 1,3c0.541199,1.306549 0.61731,2.076111 1,3c0.541199,1.306549 1,2 1,3c0,1 0,2 0,3c0,1 0,2 0,3c0,1 -0.292908,1.292908 -1,2c-0.707092,0.707092 -1.292908,0.292908 -2,1c-0.707092,0.707092 -1,1 -2,1c-1,0 -2,0 -3,0c-1,0 -2,0 -3,0c-1,0 -2,0 -3,0c-1,0 -2,0 -3,0c-1,0 -3,0 -4,0c-1,0 -2,0 -3,0c-1,0 -2,0 -3,0c-1,0 -2,0 -3,0c-1,0 -2,0 -3,0c-1,0 -1.693451,-0.458801 -3,-1c-0.923874,-0.38269 -1,1 -1,2c0,1 0.292892,2.292908 1,3c0.707092,0.707092 1.552795,1.10556 2,2c2.236053,4.472137 4.292908,4.292908 5,5c0.707092,0.707092 1.076111,0.61731 2,1c1.306549,0.541199 2,2 3,3c1,1 2,1 3,2c1,1 1,2 2,2c1,0 1.076111,0.61731 2,1c1.306549,0.541199 1.076111,1.61731 2,2c1.306549,0.541199 1.292908,1.292908 2,2c0.707092,0.707092 0.693451,1.458801 2,2c0.923889,0.38269 1.292908,0.292908 2,1c0.707092,0.707092 0.292908,1.292908 1,2c0.707092,0.707092 1.292908,1.292908 2,2c0.707092,0.707092 1.292908,0.292908 2,1c0.707092,0.707092 1,2 2,3l0,1l1,0" id="svg_20" fill-opacity="null" stroke-opacity="null" stroke-width="1.5" stroke="#FABA6F" fill="none"/>
  <path d="m288.5,209c0,-1 -0.458801,-1.693451 -1,-3c-0.38269,-0.923889 0,-2 0,-3c0,-1 -1,-2 -1,-3c0,-1 0,-2 0,-3c0,-1 0,-2 0,-3c0,-1 0,-2 0,-3c0,-1 0,-2 0,-3c0,-1 1,-2 1,-4c0,-1 0.61731,-2.076111 1,-3c0.541199,-1.306549 0.234619,-2.152252 1,-4c0.541199,-1.306549 2,-2 2,-4c0,-1 1,-1 1,-2c0,-1 1.458801,-1.693451 2,-3c0.38269,-0.923889 0.458801,-1.693451 1,-3c0.38269,-0.923889 1,-2 1,-3c0,-1 0.61731,-1.076111 1,-2c0.541199,-1.306549 1.458801,-1.693451 2,-3c0.38269,-0.923889 0.292908,-1.292908 1,-2c0.707092,-0.707092 -0.306549,-2.458801 1,-3c0.923889,-0.38269 0.292908,-1.292892 1,-2c0.707092,-0.707108 1.458801,-0.693436 2,-2c0.38269,-0.923874 0.693451,-1.458801 2,-2c0.923889,-0.38269 1.292908,0.292892 2,1c0.707092,0.707108 0.458801,1.693436 1,3c0.38269,0.923874 0.458801,1.693436 1,3c0.38269,0.923889 0,2 0,3c0,2 0.292908,2.292908 1,3c1.414215,1.414215 0,3 0,4c0,1 -0.38269,2.076111 0,3c0.541199,1.306549 1,2 1,3c0,1 1,2 1,3c0,1 0,2 0,3c0,2 0.486267,2.823761 1,5c0.229767,0.973236 0,2 0,3c0,1 0,2 0,3c0,1 0,2 0,3c0,1 0,2 0,3c0,1 0,2 0,3l0,1" id="svg_21" fill-opacity="null" stroke-opacity="null" stroke-width="1.5" stroke="#FABA6F" fill="none"/>
  <path d="m291.5,177c0,-1 1,-1 2,-1c1,0 2.076111,0.38269 3,0c1.306549,-0.541199 2,-1 3,-1c2,0 3,0 4,0c1,0 3,0 4,0c12,0 13,1 14,1c2,0 2,1 3,1l1,0" id="svg_22" fill-opacity="null" stroke-opacity="null" stroke-width="1.5" stroke="#FABA6F" fill="none"/>
  <path d="m355.5,146c0,1 0.458801,1.693436 1,3c0.38269,0.923874 0.458801,1.693436 1,3c0.38269,0.923874 1,2 1,3c0,1 1,1 1,2c0,1 0,2 1,3c1,1 0.61731,3.076111 1,4c0.541199,1.306549 0.61731,2.076111 1,3c0.541199,1.306549 1.458801,1.693451 2,3c0.765381,1.847748 1,3 1,4c0,1 0.292908,2.292908 1,3c0.707092,0.707092 0.770233,1.026764 1,2c0.513733,2.176239 0.770233,3.026764 1,4c0.513733,2.176239 -0.414215,3.585785 1,5c0.707092,0.707092 1.458801,0.693451 2,2c0.38269,0.923889 -0.38269,2.076111 0,3c0.541199,1.306549 1,3 2,4c1,1 0.292908,3.292908 1,4c0.707092,0.707092 0.61731,1.076111 1,2c0.541199,1.306549 0,3 1,3c1,0 0,-2 0,-4c0,-1 0,-2 0,-3c0,-1 0,-2 0,-3c0,-1 0,-2 0,-3c0,-1 0,-2 0,-3c0,-1 0,-2 0,-4c0,-1 0,-2 0,-3c0,-1 -0.38269,-2.076111 0,-3c0.541199,-1.306549 1,-2 1,-3c0,-1 -0.707092,-2.292908 0,-3c0.707092,-0.707092 1,-1 1,-2c0,-1 -0.707092,-2.292908 0,-3c0.707092,-0.707092 0.292908,-1.292908 1,-2c0.707092,-0.707092 1,-1 2,-1c1,0 2.458801,-0.306549 3,1c0.38269,0.923889 0.61731,2.076111 1,3c0.541199,1.306549 1.770233,1.026764 2,2c0.513733,2.176239 1.292908,2.292908 2,3c0.707092,0.707092 0.770233,2.026764 1,3c0.513733,2.176239 1.188751,2.415283 2,3c2.565369,1.84903 2,3 2,4c0,1 0.61731,2.076111 1,3c0.541199,1.306549 2.486267,1.823761 3,4c0.229767,0.973236 2.292908,5.292908 3,6c0.707092,0.707092 0.292908,1.292908 1,2c0.707092,0.707092 0.61731,1.076111 1,2c0.541199,1.306549 1.292908,2.292908 2,3c0.707092,0.707092 1.292908,-0.292908 2,-1c0.707092,-0.707092 0,-2 0,-3c0,-2 0.770233,-2.026764 1,-3c0.513733,-2.176239 1,-4 1,-5c0,-2 0.61731,-3.076111 1,-4c0.541199,-1.306549 1,-2 1,-3c0,-2 1,-4 1,-5c0,-2 0.31073,-3.080261 1,-6c0.513733,-2.176239 2.486267,-3.823761 3,-6c0.229767,-0.973236 -0.229767,-2.026764 0,-3c0.513733,-2.176239 1,-3 2,-5c1,-2 1.292908,-3.292908 2,-4c1.414215,-1.414215 0.61731,-2.076111 1,-3c0.541199,-1.306564 1.458801,-1.693436 2,-3c0.38269,-0.923874 1,-2 2,-3c1,-1 1,-2 2,-3c1,-1 1.292908,-1.292892 2,-2c0.707092,-0.707108 2,0 2,-1l1,0l1,0" id="svg_23" fill-opacity="null" stroke-opacity="null" stroke-width="1.5" stroke="#FABA6F" fill="none"/>
  <path d="m-217.5,-115.5c217.5,115.5 217.5,115.5 217.5,115.5l-217.5,-115.5l0,0l0,0" id="svg_24" fill-opacity="null" stroke-opacity="null" stroke-width="1.5" stroke="#FABA6F" fill="none"/>
 </g>
</svg>